<svg width="44" height="44" viewBox="0 0 44 44" fill="none" xmlns="http://www.w3.org/2000/svg">
<path d="M0 8C0 3.58172 3.58172 0 8 0H36C40.4183 0 44 3.58172 44 8V36C44 40.4183 40.4183 44 36 44H8C3.58172 44 0 40.4183 0 36V8Z" fill="#FFEDE6"/>
<g clip-path="url(#clip0_1_3973)">
<path d="M29.875 17.125V16.75C29.874 15.9374 29.633 15.1432 29.1823 14.4671C28.7316 13.791 28.0913 13.263 27.3416 12.9494C26.592 12.6359 25.7664 12.5508 24.9685 12.7047C24.1707 12.8586 23.436 13.2448 22.8568 13.8147C22.8226 13.8492 22.7955 13.8902 22.7771 13.9352C22.7588 13.9803 22.7496 14.0285 22.75 14.0772V22.3947C22.7501 22.4623 22.7686 22.5286 22.8034 22.5866C22.8381 22.6446 22.8879 22.6921 22.9475 22.7241C23.0071 22.756 23.0742 22.7713 23.1417 22.7683C23.2093 22.7653 23.2747 22.7441 23.3312 22.7069C24.0444 22.2496 24.8728 22.0045 25.72 22C25.9161 21.9964 26.1061 22.068 26.251 22.2002C26.3959 22.3323 26.4847 22.515 26.499 22.7106C26.5044 22.8124 26.4889 22.9142 26.4536 23.0097C26.4183 23.1053 26.364 23.1927 26.2938 23.2666C26.2236 23.3405 26.1391 23.3993 26.0454 23.4394C25.9518 23.4795 25.8509 23.5001 25.749 23.5C24.9534 23.5 24.1903 23.8161 23.6277 24.3787C23.0651 24.9413 22.749 25.7044 22.749 26.5V29.6763C22.7489 29.7323 22.7614 29.7878 22.7856 29.8384C22.8098 29.889 22.845 29.9335 22.8887 29.9688C23.4209 30.4092 24.0475 30.721 24.7198 30.8799C25.3921 31.0387 26.092 31.0404 26.7651 30.8848C27.4382 30.7291 28.0663 30.4204 28.6006 29.9825C29.1349 29.5446 29.5611 28.9894 29.8459 28.36C29.8746 28.2967 29.8851 28.2267 29.8763 28.1578C29.8675 28.0888 29.8397 28.0237 29.7961 27.9697C29.7524 27.9156 29.6946 27.8747 29.6291 27.8516C29.5635 27.8285 29.4929 27.824 29.425 27.8387C28.9575 27.9459 28.4795 28 28 28H27.2753C27.0818 28.0024 26.8945 27.9315 26.7511 27.8017C26.6076 27.6718 26.5186 27.4925 26.5018 27.2997C26.495 27.1971 26.5094 27.0942 26.544 26.9974C26.5786 26.9006 26.6328 26.8119 26.7031 26.7369C26.7735 26.6619 26.8585 26.6022 26.9529 26.5615C27.0472 26.5207 27.149 26.4998 27.2518 26.5H28.0018C28.7854 26.5012 29.5575 26.312 30.2518 25.9487C31.074 25.5205 31.7571 24.8668 32.2209 24.0641C32.6847 23.2614 32.9101 22.3432 32.8705 21.417C32.831 20.4908 32.5281 19.5951 31.9976 18.8349C31.467 18.0747 30.7307 17.4815 29.875 17.125ZM28.75 20.5H28.375C27.4798 20.5 26.6214 20.1444 25.9885 19.5115C25.3555 18.8786 25 18.0201 25 17.125V16.75C25 16.5511 25.079 16.3603 25.2196 16.2197C25.3603 16.079 25.551 16 25.75 16C25.9489 16 26.1396 16.079 26.2803 16.2197C26.4209 16.3603 26.5 16.5511 26.5 16.75V17.125C26.5 17.3712 26.5485 17.615 26.6427 17.8425C26.7369 18.07 26.875 18.2767 27.0491 18.4508C27.4008 18.8025 27.8777 19 28.375 19H28.75C28.9489 19 29.1396 19.079 29.2803 19.2197C29.4209 19.3603 29.5 19.5511 29.5 19.75C29.5 19.9489 29.4209 20.1397 29.2803 20.2803C29.1396 20.421 28.9489 20.5 28.75 20.5ZM18.25 12.625C17.1563 12.6262 16.1078 13.0612 15.3345 13.8346C14.5612 14.6079 14.1262 15.6564 14.125 16.75V17.125C13.2693 17.4817 12.5331 18.075 12.0028 18.8353C11.4724 19.5956 11.1697 20.4914 11.1304 21.4176C11.091 22.3438 11.3165 23.262 11.7805 24.0645C12.2445 24.8671 12.9277 25.5207 13.75 25.9487C14.4442 26.312 15.2164 26.5012 16 26.5H16.7246C16.9185 26.4971 17.1062 26.5678 17.25 26.6977C17.3938 26.8276 17.4831 27.0072 17.5 27.2003C17.5068 27.3029 17.4924 27.4058 17.4578 27.5026C17.4232 27.5994 17.369 27.6881 17.2987 27.7631C17.2283 27.8381 17.1433 27.8978 17.0489 27.9385C16.9545 27.9793 16.8528 28.0002 16.75 28H16C15.52 28.0002 15.0416 27.9458 14.574 27.8378C14.5062 27.823 14.4355 27.8273 14.37 27.8503C14.3044 27.8733 14.2466 27.9141 14.2028 27.968C14.1591 28.022 14.1312 28.087 14.1222 28.1559C14.1133 28.2248 14.1236 28.2948 14.1521 28.3581C14.4369 28.9877 14.863 29.5431 15.3973 29.9812C15.9316 30.4192 16.5598 30.7282 17.2329 30.884C17.9061 31.0398 18.6061 31.0383 19.2786 30.8796C19.951 30.7208 20.5779 30.4091 21.1103 29.9688C21.1539 29.9335 21.1892 29.889 21.2133 29.8384C21.2375 29.7878 21.25 29.7323 21.25 29.6763V26.5C21.25 25.7044 20.9339 24.9413 20.3713 24.3787C19.8087 23.8161 19.0456 23.5 18.25 23.5C18.1481 23.5001 18.0472 23.4795 17.9535 23.4394C17.8599 23.3993 17.7754 23.3405 17.7052 23.2666C17.635 23.1927 17.5806 23.1053 17.5453 23.0097C17.51 22.9142 17.4946 22.8124 17.5 22.7106C17.5143 22.5149 17.6032 22.332 17.7483 22.1998C17.8934 22.0676 18.0837 21.9961 18.28 22C19.1271 22.0045 19.9555 22.2496 20.6687 22.7069C20.7252 22.7441 20.7906 22.7653 20.8582 22.7683C20.9257 22.7713 20.9928 22.756 21.0524 22.7241C21.112 22.6921 21.1618 22.6446 21.1965 22.5866C21.2313 22.5286 21.2498 22.4623 21.25 22.3947V14.0772C21.2503 13.9788 21.2119 13.8841 21.1431 13.8138C20.373 13.0518 19.3333 12.6246 18.25 12.625ZM19 17.125C19 18.0201 18.6444 18.8786 18.0114 19.5115C17.3785 20.1444 16.5201 20.5 15.625 20.5H15.25C15.051 20.5 14.8603 20.421 14.7196 20.2803C14.579 20.1397 14.5 19.9489 14.5 19.75C14.5 19.5511 14.579 19.3603 14.7196 19.2197C14.8603 19.079 15.051 19 15.25 19H15.625C15.8712 19 16.115 18.9515 16.3425 18.8573C16.57 18.763 16.7767 18.6249 16.9508 18.4508C17.1249 18.2767 17.263 18.07 17.3572 17.8425C17.4515 17.615 17.5 17.3712 17.5 17.125V16.75C17.5 16.5511 17.579 16.3603 17.7196 16.2197C17.8603 16.079 18.051 16 18.25 16C18.4489 16 18.6396 16.079 18.7803 16.2197C18.9209 16.3603 19 16.5511 19 16.75V17.125Z" fill="#E84300"/>
</g>
<defs>
<clipPath id="clip0_1_3973">
<rect width="24" height="24" fill="white" transform="translate(10 10)"/>
</clipPath>
</defs>
</svg>
