<svg width="44" height="44" viewBox="0 0 44 44" fill="none" xmlns="http://www.w3.org/2000/svg">
<path d="M0 8C0 3.58172 3.58172 0 8 0H36C40.4183 0 44 3.58172 44 8V36C44 40.4183 40.4183 44 36 44H8C3.58172 44 0 40.4183 0 36V8Z" fill="#FFEDE6"/>
<g clip-path="url(#clip0_1_3998)">
<path d="M29.5 13.75H14.5C14.1022 13.75 13.7206 13.908 13.4393 14.1893C13.158 14.4706 13 14.8522 13 15.25V20.5C13 25.4425 15.3925 28.4378 17.3997 30.0803C19.5616 31.8484 21.7122 32.4484 21.8059 32.4738C21.9348 32.5088 22.0708 32.5088 22.1997 32.4738C22.2934 32.4484 24.4413 31.8484 26.6059 30.0803C28.6075 28.4378 31 25.4425 31 20.5V15.25C31 14.8522 30.842 14.4706 30.5607 14.1893C30.2794 13.908 29.8978 13.75 29.5 13.75ZM26.2825 20.2806L21.0325 25.5306C20.9628 25.6004 20.8801 25.6557 20.7891 25.6934C20.698 25.7312 20.6004 25.7506 20.5019 25.7506C20.4033 25.7506 20.3057 25.7312 20.2147 25.6934C20.1236 25.6557 20.0409 25.6004 19.9713 25.5306L17.7213 23.2806C17.5805 23.1399 17.5015 22.949 17.5015 22.75C17.5015 22.551 17.5805 22.3601 17.7213 22.2194C17.862 22.0786 18.0529 21.9996 18.2519 21.9996C18.4509 21.9996 18.6418 22.0786 18.7825 22.2194L20.5 23.9397L25.2194 19.2194C25.2891 19.1497 25.3718 19.0944 25.4628 19.0567C25.5539 19.019 25.6515 18.9996 25.75 18.9996C25.8485 18.9996 25.9461 19.019 26.0372 19.0567C26.1282 19.0944 26.2109 19.1497 26.2806 19.2194C26.3503 19.2891 26.4056 19.3718 26.4433 19.4628C26.481 19.5539 26.5004 19.6515 26.5004 19.75C26.5004 19.8485 26.481 19.9461 26.4433 20.0372C26.4056 20.1282 26.3503 20.2109 26.2806 20.2806H26.2825Z" fill="#E84300"/>
</g>
<defs>
<clipPath id="clip0_1_3998">
<rect width="24" height="24" fill="white" transform="translate(10 10)"/>
</clipPath>
</defs>
</svg>
