<svg width="20" height="20" viewBox="0 0 20 20" fill="none" xmlns="http://www.w3.org/2000/svg">
<g clip-path="url(#clip0_1_4386)">
<path d="M0.621916 13.479C2.03485 17.287 5.70027 20.0008 9.99992 20.0008C14.2996 20.0008 17.965 17.287 19.3779 13.479L9.99992 12.6095L0.621916 13.479Z" fill="#FFDA44"/>
<path d="M9.99992 0.000610352C5.70027 0.000610352 2.03485 2.71436 0.621916 6.52237L9.99992 7.3919L19.3779 6.52233C17.965 2.71436 14.2996 0.000610352 9.99992 0.000610352Z" fill="black"/>
<path d="M0.622028 6.52148C0.220075 7.6048 3.62396e-05 8.77652 3.62396e-05 9.99973C3.62396e-05 11.2229 0.220075 12.3946 0.622028 13.478H19.3781C19.78 12.3946 20 11.2229 20 9.99973C20 8.77652 19.78 7.6048 19.378 6.52148H0.622028Z" fill="#D80027"/>
</g>
<defs>
<clipPath id="clip0_1_4386">
<rect width="20" height="20" fill="white"/>
</clipPath>
</defs>
</svg>
