<svg width="20" height="20" viewBox="0 0 20 20" fill="none" xmlns="http://www.w3.org/2000/svg">
<g clip-path="url(#clip0_1_4394)">
<path d="M10 20C15.5228 20 20 15.5228 20 10C20 4.47715 15.5228 0 10 0C4.47715 0 0 4.47715 0 10C0 15.5228 4.47715 20 10 20Z" fill="#F0F0F0"/>
<path d="M19.9999 9.99996C19.9999 5.70031 17.2862 2.03488 13.4782 0.621948V19.378C17.2862 17.965 19.9999 14.2996 19.9999 9.99996Z" fill="#D80027"/>
<path d="M0.000360489 10.0006C0.000360489 14.3002 2.71415 17.9656 6.52212 19.3786V0.622559C2.71415 2.03549 0.000360489 5.70092 0.000360489 10.0006Z" fill="#0052B4"/>
</g>
<defs>
<clipPath id="clip0_1_4394">
<rect width="20" height="20" fill="white"/>
</clipPath>
</defs>
</svg>
