<svg width="44" height="44" viewBox="0 0 44 44" fill="none" xmlns="http://www.w3.org/2000/svg">
<path d="M0 8C0 3.58172 3.58172 0 8 0H36C40.4183 0 44 3.58172 44 8V36C44 40.4183 40.4183 44 36 44H8C3.58172 44 0 40.4183 0 36V8Z" fill="#FFEDE6"/>
<g clip-path="url(#clip0_1_3989)">
<path d="M16.0113 23.8561C16.0138 23.9069 16.006 23.9577 15.9883 24.0054C15.9706 24.0531 15.9434 24.0967 15.9083 24.1335C15.8732 24.1704 15.831 24.1997 15.7842 24.2197C15.7375 24.2397 15.6871 24.25 15.6363 24.2499H11.5C11.3307 24.2502 11.1663 24.1931 11.0336 24.0881C10.9008 23.9831 10.8075 23.8363 10.7688 23.6715C10.7446 23.5587 10.7458 23.4419 10.772 23.3296C10.7983 23.2173 10.849 23.1122 10.9206 23.0218C11.5823 22.1443 12.4603 21.4533 13.4688 21.0165C13.026 20.6128 12.6864 20.1089 12.4785 19.547C12.2705 18.9851 12.2002 18.3815 12.2735 17.7868C12.3467 17.1922 12.5614 16.6237 12.8995 16.1291C13.2377 15.6344 13.6894 15.228 14.2169 14.9439C14.7444 14.6597 15.3323 14.5061 15.9314 14.4959C16.5305 14.4857 17.1233 14.6192 17.6601 14.8852C18.197 15.1512 18.6624 15.5419 19.0171 16.0248C19.3719 16.5076 19.6059 17.0684 19.6994 17.6602C19.7115 17.7398 19.6972 17.8211 19.6588 17.8919C19.6204 17.9626 19.5599 18.0189 19.4866 18.0521C18.4463 18.533 17.5653 19.3014 16.9475 20.2667C16.3298 21.232 16.001 22.3539 16 23.4999C16 23.6199 16 23.738 16.0113 23.8561ZM33.0738 23.0208C32.4136 22.1443 31.5376 21.4538 30.5313 21.0165C30.974 20.6128 31.3136 20.1089 31.5216 19.547C31.7295 18.9851 31.7998 18.3815 31.7266 17.7868C31.6533 17.1922 31.4386 16.6237 31.1005 16.1291C30.7623 15.6344 30.3106 15.228 29.7831 14.9439C29.2556 14.6597 28.6677 14.5061 28.0686 14.4959C27.4696 14.4857 26.8768 14.6192 26.3399 14.8852C25.803 15.1512 25.3377 15.5419 24.9829 16.0248C24.6281 16.5076 24.3941 17.0684 24.3006 17.6602C24.2886 17.7398 24.3028 17.8211 24.3412 17.8919C24.3796 17.9626 24.4401 18.0189 24.5134 18.0521C25.5537 18.533 26.4347 19.3014 27.0525 20.2667C27.6702 21.232 27.999 22.3539 28 23.4999C28 23.6199 28 23.738 27.9888 23.8561C27.9862 23.9069 27.994 23.9577 28.0117 24.0054C28.0294 24.0531 28.0567 24.0967 28.0917 24.1335C28.1268 24.1704 28.169 24.1997 28.2158 24.2197C28.2626 24.2397 28.3129 24.25 28.3638 24.2499H32.5C32.6693 24.2502 32.8337 24.1931 32.9664 24.0881C33.0992 23.9831 33.1925 23.8363 33.2313 23.6715C33.2555 23.5585 33.2544 23.4415 33.228 23.329C33.2015 23.2165 33.1505 23.1112 33.0784 23.0208H33.0738ZM24.73 27.069C25.4768 26.4971 26.0256 25.7055 26.2992 24.8056C26.5729 23.9057 26.5577 22.9427 26.2558 22.0518C25.9538 21.161 25.3804 20.3872 24.6159 19.8391C23.8515 19.2911 22.9345 18.9963 21.9939 18.9963C21.0533 18.9963 20.1364 19.2911 19.3719 19.8391C18.6075 20.3872 18.034 21.161 17.7321 22.0518C17.4301 22.9427 17.4149 23.9057 17.6886 24.8056C17.9623 25.7055 18.5111 26.4971 19.2578 27.069C17.9327 27.6431 16.8262 28.6264 16.1003 29.8749C16.0345 29.9889 15.9998 30.1183 15.9998 30.2499C15.9998 30.3816 16.0345 30.511 16.1004 30.625C16.1662 30.739 16.2609 30.8337 16.375 30.8995C16.489 30.9653 16.6183 30.9999 16.75 30.9999H27.25C27.3817 30.9999 27.511 30.9653 27.6251 30.8995C27.7391 30.8337 27.8338 30.739 27.8997 30.625C27.9655 30.511 28.0002 30.3816 28.0002 30.2499C28.0002 30.1183 27.9655 29.9889 27.8997 29.8749C27.1723 28.6256 26.0637 27.6422 24.7366 27.069H24.73Z" fill="#E84300"/>
</g>
<defs>
<clipPath id="clip0_1_3989">
<rect width="24" height="24" fill="white" transform="translate(10 10)"/>
</clipPath>
</defs>
</svg>
