<svg width="44" height="44" viewBox="0 0 44 44" fill="none" xmlns="http://www.w3.org/2000/svg">
<path d="M0 8C0 3.58172 3.58172 0 8 0H36C40.4183 0 44 3.58172 44 8V36C44 40.4183 40.4183 44 36 44H8C3.58172 44 0 40.4183 0 36V8Z" fill="#FFEDE6"/>
<g clip-path="url(#clip0_1_3981)">
<path d="M30.25 13.75H13.75C13.3522 13.75 12.9706 13.908 12.6893 14.1893C12.408 14.4706 12.25 14.8522 12.25 15.25V28.75C12.25 29.1478 12.408 29.5294 12.6893 29.8107C12.9706 30.092 13.3522 30.25 13.75 30.25H30.25C30.6478 30.25 31.0294 30.092 31.3107 29.8107C31.592 29.5294 31.75 29.1478 31.75 28.75V15.25C31.75 14.8522 31.592 14.4706 31.3107 14.1893C31.0294 13.908 30.6478 13.75 30.25 13.75ZM13.75 15.25H30.25V19H13.75V15.25ZM30.25 28.75H20.5V20.5H30.25V28.75Z" fill="#E84300"/>
</g>
<defs>
<clipPath id="clip0_1_3981">
<rect width="24" height="24" fill="white" transform="translate(10 10)"/>
</clipPath>
</defs>
</svg>
