<svg width="44" height="44" viewBox="0 0 44 44" fill="none" xmlns="http://www.w3.org/2000/svg">
<path d="M0 8C0 3.58172 3.58172 0 8 0H36C40.4183 0 44 3.58172 44 8V36C44 40.4183 40.4183 44 36 44H8C3.58172 44 0 40.4183 0 36V8Z" fill="#FFEDE6"/>
<g clip-path="url(#clip0_1_4006)">
<path d="M18.25 20.4353L22.75 24.9353V30.625C22.75 30.7245 22.7105 30.8198 22.6402 30.8902C22.5698 30.9605 22.4745 31 22.375 31H14.5C14.1022 31 13.7206 30.842 13.4393 30.5607C13.158 30.2794 13 29.8978 13 29.5V14.5C13 14.1022 13.158 13.7206 13.4393 13.4393C13.7206 13.158 14.1022 13 14.5 13H16.375C16.4745 13 16.5698 13.0395 16.6402 13.1098C16.7105 13.1802 16.75 13.2755 16.75 13.375V24.3794C16.2496 24.5563 15.8278 24.9044 15.5593 25.3622C15.2907 25.82 15.1926 26.3581 15.2824 26.8812C15.3722 27.4043 15.644 27.8788 16.0498 28.221C16.4556 28.5631 16.9692 28.7507 17.5 28.7507C18.0308 28.7507 18.5444 28.5631 18.9502 28.221C19.356 27.8788 19.6278 27.4043 19.7176 26.8812C19.8074 26.3581 19.7093 25.82 19.4407 25.3622C19.1722 24.9044 18.7504 24.5563 18.25 24.3794V20.4353ZM17.5 27.25C17.6483 27.25 17.7933 27.206 17.9167 27.1236C18.04 27.0412 18.1361 26.9241 18.1929 26.787C18.2497 26.65 18.2645 26.4992 18.2356 26.3537C18.2067 26.2082 18.1352 26.0746 18.0303 25.9697C17.9254 25.8648 17.7918 25.7934 17.6463 25.7644C17.5008 25.7355 17.35 25.7503 17.213 25.8071C17.0759 25.8639 16.9588 25.96 16.8764 26.0833C16.794 26.2067 16.75 26.3517 16.75 26.5C16.75 26.6989 16.829 26.8897 16.9697 27.0303C17.1103 27.171 17.3011 27.25 17.5 27.25ZM27.25 19.75C27.25 19.6017 27.206 19.4567 27.1236 19.3333C27.0412 19.21 26.9241 19.1139 26.787 19.0571C26.65 19.0003 26.4992 18.9855 26.3537 19.0144C26.2082 19.0433 26.0746 19.1148 25.9697 19.2197C25.8648 19.3246 25.7934 19.4582 25.7644 19.6037C25.7355 19.7492 25.7503 19.9 25.8071 20.037C25.8639 20.1741 25.96 20.2912 26.0833 20.3736C26.2067 20.456 26.3517 20.5 26.5 20.5C26.6989 20.5 26.8897 20.421 27.0303 20.2803C27.171 20.1397 27.25 19.9489 27.25 19.75ZM29.5 13H24.625C24.5255 13 24.4302 13.0395 24.3598 13.1098C24.2895 13.1802 24.25 13.2755 24.25 13.375V16.4397L25.5306 17.7203C26.0096 17.4915 26.554 17.4394 27.0676 17.5732C27.5813 17.707 28.0311 18.018 28.3376 18.4514C28.644 18.8848 28.7874 19.4125 28.7424 19.9414C28.6974 20.4703 28.4668 20.9662 28.0915 21.3415C27.7162 21.7168 27.2203 21.9474 26.6914 21.9924C26.1625 22.0374 25.6348 21.894 25.2014 21.5876C24.768 21.2811 24.457 20.8313 24.3232 20.3176C24.1894 19.804 24.2415 19.2596 24.4703 18.7806L22.9703 17.2806C22.9005 17.211 22.8451 17.1283 22.8073 17.0372C22.7695 16.9462 22.75 16.8486 22.75 16.75V13.375C22.75 13.2755 22.7105 13.1802 22.6402 13.1098C22.5698 13.0395 22.4745 13 22.375 13H18.625C18.5255 13 18.4302 13.0395 18.3598 13.1098C18.2895 13.1802 18.25 13.2755 18.25 13.375V18.3147L24.0306 24.0944C24.1003 24.1641 24.1555 24.2468 24.1931 24.3379C24.2307 24.4289 24.2501 24.5265 24.25 24.625V30.625C24.25 30.7245 24.2895 30.8198 24.3598 30.8902C24.4302 30.9605 24.5255 31 24.625 31H29.5C29.8978 31 30.2794 30.842 30.5607 30.5607C30.842 30.2794 31 29.8978 31 29.5V14.5C31 14.1022 30.842 13.7206 30.5607 13.4393C30.2794 13.158 29.8978 13 29.5 13Z" fill="#E84300"/>
</g>
<defs>
<clipPath id="clip0_1_4006">
<rect width="24" height="24" fill="white" transform="translate(10 10)"/>
</clipPath>
</defs>
</svg>
